<svg width="60" height="64" viewBox="0 0 60 64" fill="none" xmlns="http://www.w3.org/2000/svg">
<path d="M42.4187 36.3838V36.4258C41.752 38.2895 40.6805 39.9823 39.2813 41.3824C37.8821 42.7825 36.19 43.8551 34.3266 44.523C31.992 45.3423 29.476 45.4985 27.058 44.974C26.5244 44.8577 25.9989 44.7071 25.4847 44.523C23.6165 43.8617 21.9196 42.7915 20.5178 41.3906C19.116 39.9897 18.0447 38.2935 17.3821 36.4258V36.3838H8V36.4572C8.89132 40.8178 11.0666 44.8121 14.246 47.9266C14.9538 48.6126 15.7053 49.252 16.4959 49.8408C18.1514 51.0866 19.9731 52.0945 21.908 52.8353C23.0472 53.2714 24.2208 53.6117 25.4165 53.8527C31.2136 55.0349 37.2428 53.8665 42.1787 50.6045C47.1146 47.3424 50.553 42.2537 51.7379 36.4572V36.3838H42.4187Z" fill="#C900C1"/>
<path d="M17.3454 27.568C18.0012 25.713 19.0607 24.0268 20.4473 22.631C21.834 21.2352 23.5134 20.1648 25.364 19.497V36.5044H29.6067H34.3686V10.1463H34.3214C30.1639 9.30099 25.8518 9.65381 21.887 11.1637C19.0292 12.2588 16.428 13.9316 14.246 16.0777C13.437 16.8668 12.6901 17.7171 12.0119 18.6212C10.029 21.2581 8.65852 24.3037 8 27.5366V27.6152H17.3297L17.3454 27.568Z" fill="#C900C1"/>
</svg>
